<?xml version="1.0" standalone="no"?>
<!DOCTYPE svg PUBLIC "-//W3C//DTD SVG 20010904//EN"
 "http://www.w3.org/TR/2001/REC-SVG-20010904/DTD/svg10.dtd">
<svg version="1.0" xmlns="http://www.w3.org/2000/svg"
 width="500.000000pt" height="500.000000pt" viewBox="0 0 500.000000 500.000000"
 preserveAspectRatio="xMidYMid meet">
<metadata>
Created by potrace 1.14, written by Peter Selinger 2001-2017
</metadata>
<g transform="translate(0.000000,500.000000) scale(0.100000,-0.100000)"
fill="#000000" stroke="none">
<path d="M2157 4633 c-113 -261 -199 -459 -212 -488 -24 -55 -83 -189 -130
-300 -26 -60 -59 -135 -72 -165 -14 -30 -28 -64 -33 -75 -4 -11 -15 -36 -24
-56 -8 -19 -31 -73 -51 -119 -20 -46 -42 -98 -50 -114 -8 -17 -46 -105 -85
-196 -40 -91 -78 -178 -85 -195 -7 -16 -30 -68 -50 -115 -43 -100 -57 -132
-78 -180 -17 -40 -150 -346 -269 -620 -44 -102 -88 -203 -98 -225 -25 -56
-343 -790 -579 -1335 -40 -91 -78 -178 -86 -195 -7 -16 -13 -31 -12 -32 2 -1
88 23 192 53 203 58 221 61 208 42 -10 -16 -91 -202 -89 -205 1 -1 118 31 261
72 674 191 1078 306 1100 311 8 2 230 65 715 204 140 40 605 171 620 175 8 2
141 40 295 84 154 44 417 118 585 166 167 47 307 88 312 91 4 3 -8 30 -26 62
-18 31 -44 77 -58 102 -14 25 -79 142 -145 260 -66 118 -135 242 -153 275 -18
33 -42 76 -53 95 -24 43 -390 697 -425 760 -14 25 -55 99 -92 165 -37 66 -79
143 -95 170 -15 28 -48 86 -72 130 -25 44 -59 105 -75 135 -17 30 -47 84 -68
120 -20 36 -51 90 -67 120 -16 30 -137 246 -268 480 -131 234 -254 455 -274
492 -20 37 -39 68 -42 68 -3 0 -28 -50 -55 -112 -27 -61 -53 -111 -59 -110 -5
2 -19 19 -30 40 -33 61 -108 195 -128 227 -9 17 -20 38 -23 48 -4 9 -10 17
-14 17 -4 0 -33 -57 -63 -127z"/>
</g>
</svg>
